<?xml version="1.0" encoding="UTF-8"?>
<svg version="1.1" xmlns="http://www.w3.org/2000/svg" width="589" height="512">
<path d="M0 0 C194.37 0 388.74 0 589 0 C589 168.96 589 337.92 589 512 C394.63 512 200.26 512 0 512 C0 343.04 0 174.08 0 0 Z " fill="#101724" transform="translate(0,0)"/>
<path d="M0 0 C25.01065041 8.70859165 47.25992603 21.04219686 67.4375 38.1875 C68.02619873 38.68749512 68.61489746 39.18749023 69.22143555 39.70263672 C74.99931788 44.71900077 74.99931788 44.71900077 76.75 47.8125 C76.859375 49.99609375 76.859375 49.99609375 76.5 52.25 C76.38269531 53.0440625 76.26539063 53.838125 76.14453125 54.65625 C75.86301486 56.19483465 75.53920889 57.72592813 75.1875 59.25 C74.47682619 63.41251804 74.67638526 67.60010074 74.75 71.8125 C74.96914062 71.19503906 75.18828125 70.57757813 75.4140625 69.94140625 C81.35255229 54.08129327 90.93985311 45.36210415 105.75 37.8125 C108.40708208 36.65220215 110.98643613 35.69684044 113.75 34.8125 C113.00561083 31.6739943 111.99162641 28.79240339 110.75 25.8125 C115.3412135 27.06743169 119.41413886 28.19896049 123 31.4375 C125.77292612 33.83229983 127.16977508 34.4965978 130.75 34.8125 C129.4394951 26.36267735 126.01276059 20.46019759 120.75 13.8125 C129.37466375 13.9752295 135.94359411 18.03243602 142.0078125 24.0546875 C143.65714573 25.93105445 145.23740481 27.82496024 146.75 29.8125 C148.86347836 25.58554327 148.25724094 20.39972242 147.75 15.8125 C146.44571437 12.23058125 144.70127074 9.07644378 142.75 5.8125 C142.07244198 4.48466818 141.40200222 3.1530653 140.75 1.8125 C157.36751983 6.69811511 168.09240755 17.26037653 176.75 31.8125 C177.08 28.8425 177.41 25.8725 177.75 22.8125 C180.3897332 24.84886561 182.73134559 26.79113769 184.9296875 29.30859375 C188.29179147 32.29350877 191.42986106 33.1742338 195.6875 34.1875 C211.82475842 38.55127059 224.33070347 45.66512537 233.3125 60.1875 C235.071473 63.30876366 236.4677485 66.4680099 237.75 69.8125 C237.9283012 64.19601227 237.63597753 59.38491573 236.1875 53.953125 C235.50796165 50.62824093 234.99501571 47.97952656 236.90234375 45.03125 C267.60002281 15.47549773 308.32071804 -2.58846838 350.3125 -8 C351.75629028 -8.1861084 351.75629028 -8.1861084 353.22924805 -8.37597656 C371.72926484 -10.53465678 371.72926484 -10.53465678 376.75 -7.1875 C376.40923223 -4.25165458 375.82418429 -3.2578377 373.640625 -1.1875 C372.33351563 -0.1975 372.33351563 -0.1975 371 0.8125 C369.70835937 1.8025 369.70835937 1.8025 368.390625 2.8125 C366.67132431 4.11469224 364.94253269 5.40447757 363.203125 6.6796875 C349.21961727 18.8373232 343.9277836 38.47971827 339.8125 55.8125 C334.44683409 78.15617581 324.36552534 97.80105554 304.75 110.8125 C289.10661728 119.69166945 273.86664321 124.89597101 255.75 123.8125 C254.75 122.8125 254.75 122.8125 254.6953125 120.73046875 C255.55818375 107.61857739 261.00118295 96.90648744 270.69140625 88.03515625 C277.87842949 82.32909537 285.52476154 78.32501325 294.75 77.8125 C294.75 77.1525 294.75 76.4925 294.75 75.8125 C285.35829042 76.0536222 277.15302662 76.86057633 268.2265625 79.97265625 C265.75 80.8125 265.75 80.8125 263.75 80.8125 C265.19927305 70.74005228 273.15906241 62.09982672 280.75 55.8125 C292.48675195 47.38337815 304.47982233 42.70372837 318.75 40.8125 C307.86 40.3175 307.86 40.3175 296.75 39.8125 C306.03732936 21.23784128 332.92276247 11.56178355 350.51953125 3.85302734 C352.67354298 3.00291267 352.67354298 3.00291267 353.75 1.8125 C324.44276552 1.94977042 297.82238512 19.09746219 276.75 37.8125 C275.75033203 38.68455078 275.75033203 38.68455078 274.73046875 39.57421875 C266.5247235 47.20344794 260.3359514 57.1281775 255.3125 67.0625 C254.99482666 67.68697021 254.67715332 68.31144043 254.34985352 68.95483398 C249.2989423 79.37021742 248.42693967 88.33427845 248.8671875 99.80273438 C249.01323368 106.11111802 248.29031942 111.28691905 246.44482422 117.31860352 C245.51347165 120.66145894 245.37755955 123.85286265 245.3125 127.3125 C244.61506007 139.8283765 240.70229284 147.13723251 231.75 155.8125 C231.08226562 156.46605469 230.41453125 157.11960938 229.7265625 157.79296875 C224.39215561 162.74926634 218.54416866 167.00199834 212.68969727 171.31323242 C208.79982296 174.19885664 205.1499922 177.1672801 201.625 180.5 C186.709375 194.28944526 170.23397131 200.48139163 150.0625 200.1484375 C143.22616387 199.85717107 137.75995802 198.05106763 131.75 194.8125 C130.69941406 194.25433594 129.64882812 193.69617188 128.56640625 193.12109375 C121.82966965 189.24726802 116.06836557 184.72639095 110.27075195 179.59423828 C105.67650636 175.53903901 100.8975865 171.80600231 96 168.125 C70.45042977 148.77357679 70.45042977 148.77357679 67.75 132.8125 C67.41859797 129.04729384 67.19148689 125.30082432 67.05859375 121.5234375 C66.86070567 117.76078389 66.86070567 117.76078389 65.7109375 114.0390625 C64.34381438 108.96187759 64.7465707 104.02313423 64.9375 98.8125 C65.27267477 77.72330359 56.63308895 60.41257875 42.75 44.8125 C42.10289062 44.03390625 41.45578125 43.2553125 40.7890625 42.453125 C25.55734253 24.42374218 3.74100509 12.28172868 -18.5625 5.375 C-19.34971436 5.12782227 -20.13692871 4.88064453 -20.94799805 4.62597656 C-27.32626937 2.77014251 -33.6317765 2.18524808 -40.25 1.8125 C-39.06579468 2.35438965 -39.06579468 2.35438965 -37.85766602 2.90722656 C-18.03256317 12.04550648 1.68685342 21.48053546 16.75 37.8125 C16.75 38.4725 16.75 39.1325 16.75 39.8125 C9.16 39.8125 1.57 39.8125 -6.25 39.8125 C-6.25 40.4725 -6.25 41.1325 -6.25 41.8125 C-5.28513672 41.85117188 -5.28513672 41.85117188 -4.30078125 41.890625 C13.59806159 43.01409017 28.59172403 50.68751095 40.75 63.8125 C48.86975331 74.28202114 48.86975331 74.28202114 49.75 80.8125 C48.17025391 80.39677734 48.17025391 80.39677734 46.55859375 79.97265625 C36.88822211 77.51475603 27.73362269 76.10314404 17.75 75.8125 C17.75 76.4725 17.75 77.1325 17.75 77.8125 C18.8225 77.85375 19.895 77.895 21 77.9375 C31.58746875 79.32172736 40.7626306 86.06536316 47.75 93.8125 C54.55954921 103.22781751 57.94626801 112.23268749 57.75 123.8125 C34.96577801 125.42079802 14.83294511 116.0138395 -2.0859375 101.35546875 C-17.18810011 87.22563715 -23.15055375 68.18319244 -28.25 48.6875 C-34.03596096 26.70238056 -42.688216 8.07106872 -62.30859375 -4.70703125 C-63.26958984 -5.43986328 -63.26958984 -5.43986328 -64.25 -6.1875 C-64.25 -6.8475 -64.25 -7.5075 -64.25 -8.1875 C-48.21153184 -16.20673408 -16.10436007 -5.08282948 0 0 Z " fill="#2F5472" transform="translate(121.25,58.1875)"/>
<path d="M0 0 C15.55112311 7.08542296 26.01157602 24.56576566 31.98046875 39.90234375 C30.76987793 39.91168945 29.55928711 39.92103516 28.31201172 39.93066406 C23.80529465 39.97064323 19.29925453 40.03642415 14.79296875 40.10986328 C12.8454663 40.13802696 10.89785053 40.15926435 8.95019531 40.17333984 C6.14459407 40.19483321 3.34034875 40.24151573 0.53515625 40.29296875 C-0.76362961 40.29481171 -0.76362961 40.29481171 -2.08865356 40.29669189 C-8.50774085 40.45097756 -12.1501076 42.17759692 -16.87890625 46.66796875 C-18.54695647 49.93551919 -18.3785098 53.07545307 -18.26953125 56.65234375 C-18.25857422 57.37172119 -18.24761719 58.09109863 -18.23632812 58.83227539 C-18.13680285 63.60029323 -17.68105789 68.18896646 -17.01953125 72.90234375 C-16.93890008 75.90466891 -16.95697879 78.89982547 -17.01953125 81.90234375 C-17.79876953 81.48662109 -17.79876953 81.48662109 -18.59375 81.0625 C-25.04777487 77.71022461 -29.70629364 76.86820962 -37.01953125 76.90234375 C-35.95992187 77.4334375 -34.9003125 77.96453125 -33.80859375 78.51171875 C-32.42025817 79.22464783 -31.03225445 79.93822342 -29.64453125 80.65234375 C-28.94585937 81.00039063 -28.2471875 81.3484375 -27.52734375 81.70703125 C-22.35000775 84.3952634 -22.35000775 84.3952634 -20.54296875 87.16796875 C-20.37023437 87.7403125 -20.1975 88.31265625 -20.01953125 88.90234375 C-20.78136719 89.17046875 -21.54320312 89.43859375 -22.328125 89.71484375 C-34.75455871 94.43099337 -40.96233384 100.61565741 -46.70703125 112.4375 C-48.04403559 115.9670323 -48.63791534 119.15773766 -49.01953125 122.90234375 C-53.66138749 121.35505834 -55.58747819 118.02886 -58.01953125 113.90234375 C-61.72370151 105.05349257 -62.99425101 94.24838791 -59.51953125 85.15234375 C-58.70745697 83.39237789 -57.87088843 81.64364654 -57.01953125 79.90234375 C-56.46297973 78.67200022 -55.90986309 77.44009965 -55.359375 76.20703125 C-48.31326415 60.60226431 -39.96569779 45.74942583 -30.83203125 31.27734375 C-30.27435059 30.38958252 -29.71666992 29.50182129 -29.14208984 28.5871582 C-24.04535636 20.63425173 -18.53834163 12.65880739 -11.33203125 6.46484375 C-10.62691406 5.84738281 -9.92179687 5.22992188 -9.1953125 4.59375 C-3.09359785 -0.14959371 -3.09359785 -0.14959371 0 0 Z " fill="#1B3046" transform="translate(198.01953125,222.09765625)"/>
<path d="M0 0 C24.98494725 8.64570583 39.51259272 46.95827168 50.5625 68.88671875 C57.3223961 82.91704207 63.0673817 95.92325005 57.6171875 111.625 C55.83324795 115.45055925 53.55657592 118.9004399 50.5625 121.88671875 C49.0775 122.38171875 49.0775 122.38171875 47.5625 122.88671875 C47.46453125 122.18546875 47.3665625 121.48421875 47.265625 120.76171875 C45.73077926 111.02338718 42.79711378 102.98433602 34.79296875 96.71875 C27.18415957 91.61747316 27.18415957 91.61747316 18.5625 88.88671875 C18.5625 88.22671875 18.5625 87.56671875 18.5625 86.88671875 C20.7578125 85.23046875 20.7578125 85.23046875 23.6875 83.38671875 C24.63882813 82.77828125 25.59015625 82.16984375 26.5703125 81.54296875 C29.52000953 79.91023828 32.33735739 78.84373436 35.5625 77.88671875 C35.5625 77.55671875 35.5625 77.22671875 35.5625 76.88671875 C29.36511135 77.14071009 24.56831605 77.9305009 19.15625 81.046875 C17.5625 81.88671875 17.5625 81.88671875 15.5625 81.88671875 C15.65337891 80.94203735 15.65337891 80.94203735 15.74609375 79.97827148 C16.02162842 77.09390042 16.29210176 74.20907568 16.5625 71.32421875 C16.70558594 69.83825195 16.70558594 69.83825195 16.8515625 68.32226562 C18.11294862 56.24712554 18.11294862 56.24712554 14.5625 44.88671875 C11.08263344 41.40685219 7.31240336 40.79012564 2.52832031 40.68139648 C1.35755951 40.65147865 1.35755951 40.65147865 0.16314697 40.62095642 C-0.66928528 40.60424393 -1.50171753 40.58753143 -2.359375 40.5703125 C-3.64935394 40.53914085 -3.64935394 40.53914085 -4.96539307 40.50733948 C-7.70601598 40.44208136 -10.44673275 40.38306958 -13.1875 40.32421875 C-15.0481867 40.28101094 -16.90886398 40.23739593 -18.76953125 40.19335938 C-23.32542523 40.08642433 -27.8814134 39.98509024 -32.4375 39.88671875 C-31.98234711 38.46012174 -31.52181759 37.03523952 -31.05908203 35.61108398 C-30.8032132 34.81741928 -30.54734436 34.02375458 -30.28372192 33.20603943 C-26.66066634 23.2759874 -11.66290303 -0.54202594 0 0 Z " fill="#1B3046" transform="translate(358.4375,222.11328125)"/>
<path d="M0 0 C1.03145327 -0.01064158 1.03145327 -0.01064158 2.08374399 -0.02149814 C4.37569722 -0.03902621 6.66594273 -0.0210025 8.95787048 -0.00291443 C10.6058021 -0.00805525 12.25372822 -0.01533775 13.90164185 -0.02459717 C18.36862945 -0.04309744 22.8350195 -0.03018204 27.30198216 -0.01050687 C31.97882475 0.00588961 36.65562978 -0.00293453 41.33248901 -0.00802612 C49.18492672 -0.01254552 57.0371261 0.00331428 64.88951111 0.03126526 C73.96690479 0.06332764 83.04386891 0.06329662 92.12129313 0.04605049 C100.85653573 0.03018612 109.5916209 0.03691765 118.32685661 0.0539875 C122.04328542 0.06085858 125.75958806 0.05982501 129.47601509 0.05244255 C133.85185687 0.0447805 138.2272098 0.05690295 142.60296822 0.08429146 C144.20857797 0.09117683 145.81423337 0.09127159 147.41984177 0.08407593 C149.61222677 0.07538282 151.80310249 0.09133192 153.99536133 0.11352539 C155.22184922 0.11633231 156.44833712 0.11913923 157.71199131 0.12203121 C161.54254187 0.72375203 163.19611583 1.93640577 165.93418884 4.62818909 C169.83451023 12.42883185 166.50776102 25.99191416 165.69200134 34.40553284 C165.56183939 35.78826916 165.43211884 37.1710471 165.30281067 38.55386353 C165.03250101 41.43081789 164.75815834 44.30734746 164.48057556 47.18360901 C164.12902127 50.8278858 163.78577174 54.47288384 163.44536018 58.11821651 C163.17862813 60.96789024 162.90837465 63.81722163 162.63703537 66.66646004 C162.44846283 68.65006417 162.26198265 70.63386687 162.07557678 72.61767578 C161.46906556 78.87780535 160.80255462 85.13099118 160.02745056 91.37257385 C159.8902359 92.5026033 159.75302124 93.63263275 159.61164856 94.79690552 C158.90269195 97.75982294 158.42869315 98.9196203 155.93418884 100.62818909 C154.94418884 100.62818909 153.95418884 100.62818909 152.93418884 100.62818909 C153.40674439 89.74383285 154.32370664 78.91023047 155.34434509 68.06568909 C155.41007092 67.36606049 155.47579674 66.66643188 155.54351425 65.94560242 C156.16464701 59.34457358 156.79421908 52.74435355 157.42564392 46.14430237 C157.77396346 42.50051553 158.11816236 38.85635685 158.46003532 35.21195984 C158.65179327 33.18167651 158.84834471 31.15189512 159.04504395 29.12208557 C159.97540113 19.38906142 159.97540113 19.38906142 159.93418884 9.62818909 C157.13936401 6.83336425 155.43617585 7.37668822 151.51902771 7.3742218 C150.85311096 7.37110182 150.1871942 7.36798184 149.50109816 7.36476731 C147.25930521 7.35676026 145.01778091 7.36312132 142.77598572 7.36940002 C141.17304322 7.36669136 139.57010197 7.36313113 137.96716309 7.35877991 C133.60568521 7.34963881 129.24430163 7.35320721 124.88282204 7.35953808 C120.32600773 7.3645892 115.76920169 7.35990911 111.21238708 7.35676575 C103.5589299 7.3531235 95.90551127 7.35793196 88.25205994 7.3674469 C79.39405398 7.37833195 70.53614008 7.37480655 61.67813635 7.36379409 C54.08321515 7.35472856 46.48832172 7.35343233 38.89339685 7.35867143 C34.35273383 7.36179518 29.81211413 7.3621894 25.27145386 7.35559845 C21.00334281 7.34983626 16.73535086 7.35380109 12.46725273 7.36538696 C10.89746232 7.36803961 9.32766194 7.36725821 7.75787544 7.36286163 C5.62156331 7.3574284 3.48563724 7.36421278 1.34934998 7.3742218 C-0.44701527 7.37535288 -0.44701527 7.37535288 -2.27967072 7.37650681 C-5.20561723 7.34091332 -5.20561723 7.34091332 -7.06581116 9.62818909 C-7.20170446 12.56006322 -7.20170446 12.56006322 -6.88221741 16.19068909 C-6.83198929 16.9182843 -6.78176117 17.64587952 -6.73001099 18.39552307 C-5.61380057 33.65340615 -4.03126177 48.88357737 -2.57435608 64.11207581 C-2.22603654 67.75586264 -1.88183764 71.40002133 -1.53996468 75.04441833 C-1.34820673 77.07470166 -1.15165529 79.10448305 -0.95495605 81.1342926 C-0.3420131 87.6665774 0.07993832 94.06723401 -0.06581116 100.62818909 C-4.94081116 98.75318909 -4.94081116 98.75318909 -6.06581116 97.62818909 C-8.25358982 85.34892054 -9.03499446 72.7891471 -10.12831116 60.37818909 C-10.30314155 58.41982896 -10.47827017 56.46149544 -10.65370178 54.50318909 C-10.98576589 50.79393764 -11.31501771 47.0844537 -11.64222717 43.37477112 C-11.96382134 39.74127604 -12.30748564 36.11042935 -12.65956116 32.47975159 C-13.14650002 27.07338502 -13.39477999 21.67974728 -13.50331116 16.25318909 C-13.54907288 15.29541565 -13.59483459 14.33764221 -13.64198303 13.35084534 C-13.65680725 12.4240094 -13.67163147 11.49717346 -13.68690491 10.54225159 C-13.71196106 9.71676819 -13.73701721 8.89128479 -13.76283264 8.04078674 C-11.87246161 1.4976531 -6.07810467 0.00290468 0 0 Z " fill="#2E5372" transform="translate(201.06581115722656,269.37181091308594)"/>
<path d="M0 0 C0.50547389 5.3074758 -0.77256437 7.82331859 -4 12 C-4.66 12.66 -5.32 13.32 -6 14 C-6.04083359 16.33334806 -5.98310001 18.66879968 -5.875 21 C-5.67805682 29.45037729 -7.49487244 35.27809619 -12.1875 42.25 C-20.14849628 50.03408525 -28.78915164 53.99098992 -39.9375 54.4375 C-49.65556612 54.15094164 -58.63243518 50.31505556 -66 44 C-70.97933852 38.53395921 -74.16074785 34.37758456 -74.0625 26.8125 C-74.05347656 25.91144531 -74.04445313 25.01039063 -74.03515625 24.08203125 C-74.02355469 23.39496094 -74.01195312 22.70789063 -74 22 C-73.34 22 -72.68 22 -72 22 C-71.525625 22.969375 -71.05125 23.93875 -70.5625 24.9375 C-69.29806053 27.80477437 -69.29806053 27.80477437 -68 29 C-60.34765248 28.81020963 -55.4573695 26.50433346 -49 22.5625 C-48.08935791 22.0247998 -47.17871582 21.48709961 -46.24047852 20.93310547 C-43.48483072 19.30303104 -40.74185566 17.65314079 -38 16 C-9.55753745 -0.95575374 -9.55753745 -0.95575374 0 0 Z " fill="#111724" transform="translate(359,153)"/>
<path d="M0 0 C5.90338278 -0.33084893 9.88126653 0.34362872 15.125 3.1875 C15.7938623 3.53554687 16.46272461 3.88359375 17.15185547 4.2421875 C28.44442608 10.22405993 39.37572039 16.9401365 50.26953125 23.61328125 C51.49198539 24.34669115 52.71462474 25.07979249 53.9375 25.8125 C54.95714844 26.43769531 55.97679687 27.06289062 57.02734375 27.70703125 C60.58706462 29.25534611 63.15589158 29.37096342 67 29 C69.33130719 26.74640305 69.97071908 25.08784275 71 22 C71.66 22 72.32 22 73 22 C73.73440773 29.2760766 73.26950845 34.10706838 68.765625 40 C60.90218818 48.90725586 51.33196565 52.99852076 39.59765625 54.2578125 C29.77897033 54.72315306 21.40855495 51.17344135 13.94140625 44.921875 C7.91647743 38.95755915 4.95278503 31.86224418 4.8125 23.375 C4.84855091 20.71624505 5.05183947 18.82454333 5.8125 16.25 C5.874375 15.5075 5.93625 14.765 6 14 C3.70817728 11.20802268 3.70817728 11.20802268 1 9 C0 8 0 8 -0.09765625 6.15234375 C-0.06510417 4.1015625 -0.03255208 2.05078125 0 0 Z " fill="#111724" transform="translate(197,153)"/>
<path d="M0 0 C1.13050781 -0.01417969 2.26101562 -0.02835937 3.42578125 -0.04296875 C7.55162767 0.24855812 10.35089636 0.9869224 13.453125 3.7734375 C13.94296875 4.36382812 14.4328125 4.95421875 14.9375 5.5625 C15.43765625 6.14773438 15.9378125 6.73296875 16.453125 7.3359375 C19.99691076 12.65161615 18.91030656 19.75583319 18.92773438 25.8671875 C18.9374037 27.91708527 18.9684364 29.9659637 19 32.015625 C19.03397136 40.64434946 18.98007187 47.31872805 13.1875 54.125 C7.69634621 58.65520187 0.45904182 57.74075601 -6.3125 57.1875 C-11.2990628 54.95214426 -13.65410043 51.91354367 -16.3125 47.1875 C-18.21759714 41.42495525 -17.58074791 34.99173291 -17.625 29 C-17.65400391 27.71029297 -17.68300781 26.42058594 -17.71289062 25.09179688 C-17.76190047 17.71392963 -17.47727493 11.47777131 -13.3125 5.1875 C-8.82583143 0.91448232 -6.10937696 0.03459443 0 0 Z " fill="#2E5371" transform="translate(99.3125,413.8125)"/>
<path d="M0 0 C25.78144369 -0.0466626 51.56288107 -0.08196062 77.34435844 -0.10362434 C89.31438481 -0.11394928 101.28438498 -0.12803279 113.25439453 -0.15087891 C123.68402915 -0.1707756 134.11364481 -0.18370757 144.54329789 -0.18817699 C150.06880485 -0.19079069 155.59425754 -0.19695915 161.11974716 -0.21146011 C166.3152847 -0.22498532 171.51074536 -0.22923295 176.70629883 -0.22621536 C178.61795595 -0.2267678 180.52961552 -0.23077526 182.44125748 -0.23841095 C185.04181607 -0.24829311 187.64208053 -0.24599371 190.24264526 -0.24050903 C191.00722734 -0.24633472 191.77180942 -0.2521604 192.55956066 -0.25816262 C197.77175758 -0.22824242 197.77175758 -0.22824242 200 2 C199.75 5.0625 199.75 5.0625 199 8 C195.93822085 9.53088957 192.73631027 9.1443188 189.37672424 9.14044189 C188.18289695 9.14489858 188.18289695 9.14489858 186.96495193 9.1494453 C184.28334614 9.15815521 181.60178486 9.15964246 178.92016602 9.16113281 C177.00357975 9.1657593 175.08699441 9.17078373 173.17041016 9.17617798 C167.95355174 9.18931876 162.73670619 9.19574999 157.5198338 9.20018864 C154.26374401 9.20311615 151.00765776 9.2072203 147.75156975 9.21169281 C137.57314907 9.22537105 127.39473646 9.23503658 117.21630722 9.2388947 C105.44945116 9.24337893 93.68271106 9.26094237 81.91589028 9.2898953 C72.83137476 9.3114759 63.74689196 9.32159701 54.66235107 9.32293582 C49.23127697 9.32398629 43.80031182 9.32994544 38.3692646 9.34775543 C33.26312409 9.36417401 28.15717518 9.36642201 23.05101776 9.35761642 C21.17364173 9.35684275 19.29625565 9.36123193 17.41890526 9.37107468 C14.86245842 9.38369522 12.3067004 9.37797189 9.7502594 9.36749268 C9.00162725 9.37554908 8.25299509 9.38360548 7.48167711 9.39190602 C4.63172374 9.36444886 2.46666197 9.26172038 -0.04689121 7.85203171 C-1.48423053 5.05906828 -0.72419278 2.96260683 0 0 Z " fill="#2F5473" transform="translate(178,375)"/>
<path d="M0 0 C22 0 22 0 28 3 C35.23995948 10.40450402 35.36345444 17.44681707 35.375 27.3125 C35.39949219 28.40240234 35.42398438 29.49230469 35.44921875 30.61523438 C35.47848055 38.72563077 34.17238804 45.00893117 29.0625 51.4375 C20.27753211 58.09277871 11.66257953 55 0 55 C0 36.85 0 18.7 0 0 Z " fill="#2E5372" transform="translate(127,415)"/>
<path d="M0 0 C4.29 0 8.58 0 13 0 C13.62648438 1.40894531 14.25296875 2.81789063 14.8984375 4.26953125 C15.72381507 6.1172515 16.54934378 7.96490425 17.375 9.8125 C17.7875 10.74126953 18.2 11.67003906 18.625 12.62695312 C19.02460938 13.51962891 19.42421875 14.41230469 19.8359375 15.33203125 C20.20251465 16.15421143 20.5690918 16.9763916 20.94677734 17.82348633 C22.03821412 20.20561193 22.03821412 20.20561193 24 23 C24.2673999 22.3387915 24.5347998 21.67758301 24.81030273 20.99633789 C26.0167498 18.01732351 27.22707088 15.03989848 28.4375 12.0625 C28.85837891 11.02158203 29.27925781 9.98066406 29.71289062 8.90820312 C30.11572266 7.91884766 30.51855469 6.92949219 30.93359375 5.91015625 C31.30540771 4.99371338 31.67722168 4.07727051 32.06030273 3.13305664 C33 1 33 1 34 0 C38.29 0 42.58 0 47 0 C47 18.15 47 36.3 47 55 C43.7 55 40.4 55 37 55 C36.67 43.78 36.34 32.56 36 21 C33.08048608 27.86496666 33.08048608 27.86496666 30.16625977 34.73217773 C29.80330811 35.58239502 29.44035645 36.4326123 29.06640625 37.30859375 C28.69459229 38.18314209 28.32277832 39.05769043 27.93969727 39.95874023 C27 42 27 42 26 43 C24.33382885 43.04063832 22.66611905 43.042721 21 43 C20.05988736 41.14715664 19.12304408 39.29265432 18.1875 37.4375 C17.66542969 36.40496094 17.14335937 35.37242187 16.60546875 34.30859375 C14.96246134 30.92263931 13.48252724 27.45923023 12 24 C11.67 34.23 11.34 44.46 11 55 C7.37 55 3.74 55 0 55 C0 36.85 0 18.7 0 0 Z " fill="#2E5270" transform="translate(334,415)"/>
<path d="M0 0 C25 0 25 0 30 3 C34.91987446 9.11660069 34.82521037 15.3668041 34 23 C32.65430806 26.71667297 31.14015819 29.54248489 28 32 C27.34 32 26.68 32 26 32 C29.3 39.59 32.6 47.18 36 55 C32.37 55 28.74 55 25 55 C21.40272079 48.11976695 18.23313726 41.44379088 16 34 C14.02 34 12.04 34 10 34 C10 40.93 10 47.86 10 55 C6.7 55 3.4 55 0 55 C0 36.85 0 18.7 0 0 Z " fill="#2F5372" transform="translate(253,415)"/>
<path d="M0 0 C3.3 0 6.6 0 10 0 C15.08744929 9.82802703 19.54877231 19.86961973 24 30 C24.33 20.1 24.66 10.2 25 0 C28.3 0 31.6 0 35 0 C35 18.15 35 36.3 35 55 C31.7 55 28.4 55 25 55 C20.14106717 45.41505348 15.50912679 35.75443755 11 26 C10.67 35.57 10.34 45.14 10 55 C6.7 55 3.4 55 0 55 C0 36.85 0 18.7 0 0 Z " fill="#2F5372" transform="translate(445,415)"/>
<path d="M0 0 C1.20269531 -0.02578125 2.40539062 -0.0515625 3.64453125 -0.078125 C8.80802534 0.40008173 12.03552791 1.97349038 15.5 5.8125 C17.79853999 9.13261332 18.32531183 10.82161375 18.3125 14.8125 C18.31636719 16.02099609 18.31636719 16.02099609 18.3203125 17.25390625 C18.1875 19.25 18.1875 19.25 17.1875 20.25 C14.51691149 20.39115161 11.86317762 20.29247107 9.1875 20.25 C8.98253906 19.68410156 8.77757812 19.11820312 8.56640625 18.53515625 C8.29699219 17.80167969 8.02757812 17.06820313 7.75 16.3125 C7.48316406 15.58160156 7.21632812 14.85070312 6.94140625 14.09765625 C6.33363052 12.26694322 6.33363052 12.26694322 5.1875 11.25 C3.11977266 11.05058132 3.11977266 11.05058132 0.75 11.0625 C-0.05308594 11.04832031 -0.85617188 11.03414063 -1.68359375 11.01953125 C-4.02880633 11.04837644 -4.02880633 11.04837644 -5.8125 13.25 C-6.21198471 17.65001337 -6.14151561 22.06458162 -6.12817383 26.48071289 C-6.12501683 28.67579921 -6.14845761 30.86953385 -6.17382812 33.06445312 C-6.17610143 34.45833163 -6.17680447 35.85221377 -6.17578125 37.24609375 C-6.17876221 38.51638428 -6.18174316 39.7866748 -6.18481445 41.09545898 C-6.06529036 44.19583238 -6.06529036 44.19583238 -4.50854492 46.16430664 C-1.6363979 48.0028611 0.89240712 47.60304567 4.1875 47.25 C6.39507359 45.62905436 7.09112419 44.67596638 7.69921875 41.98828125 C7.75722656 41.18777344 7.81523437 40.38726562 7.875 39.5625 C7.94074219 38.75425781 8.00648438 37.94601562 8.07421875 37.11328125 C8.11160156 36.49839844 8.14898437 35.88351562 8.1875 35.25 C5.5475 35.25 2.9075 35.25 0.1875 35.25 C0.1875 32.28 0.1875 29.31 0.1875 26.25 C6.1275 26.25 12.0675 26.25 18.1875 26.25 C18.26877476 29.45884784 18.32813141 32.66561761 18.375 35.875 C18.40013672 36.77863281 18.42527344 37.68226563 18.45117188 38.61328125 C18.50949296 43.93994021 18.2064862 47.65682814 15.1875 52.25 C9.57792518 57.57190431 4.57483966 57.54666795 -2.8984375 57.46484375 C-7.92384437 57.09433788 -10.65145005 55.47555272 -14.0625 51.875 C-17.28798681 47.03676979 -18.06708666 43.24911339 -18.078125 37.4453125 C-18.08070313 36.13949219 -18.08328125 34.83367187 -18.0859375 33.48828125 C-18.08174805 32.8123291 -18.07755859 32.13637695 -18.07324219 31.43994141 C-18.06256785 29.38804303 -18.07314099 27.33702705 -18.0859375 25.28515625 C-18.08335937 23.97675781 -18.08078125 22.66835938 -18.078125 21.3203125 C-18.07586914 20.13195801 -18.07361328 18.94360352 -18.07128906 17.71923828 C-17.67838033 12.45203731 -16.87463674 7.55914377 -12.875 3.875 C-12.11896484 3.15183594 -12.11896484 3.15183594 -11.34765625 2.4140625 C-7.88100589 -0.2145935 -4.17680521 0.0533777 0 0 Z " fill="#2E5271" transform="translate(225.8125,413.75)"/>
<path d="M0 0 C3.29294835 2.04561943 5.41074446 4.73234061 6.859375 8.2734375 C7.08742955 10.99488851 6.99872185 13.5329495 6.859375 16.2734375 C3.559375 16.2734375 0.259375 16.2734375 -3.140625 16.2734375 C-3.45 15.3040625 -3.759375 14.3346875 -4.078125 13.3359375 C-4.83585842 10.43277958 -4.83585842 10.43277958 -6.140625 9.2734375 C-9.09879607 9.02338364 -9.09879607 9.02338364 -12.140625 9.2734375 C-14.41242854 11.15012069 -14.41242854 11.15012069 -14.578125 14.1484375 C-14.45963377 17.40016085 -14.45963377 17.40016085 -11.98828125 19.2578125 C-9.1243311 21.28497063 -6.22232285 22.97394352 -3.140625 24.6484375 C5.34341755 29.6009451 5.34341755 29.6009451 7.859375 34.2734375 C8.78470323 40.45463005 8.55607128 46.0470738 4.859375 51.2734375 C-0.59251404 56.31643487 -5.0109985 56.57099029 -12.19140625 56.484375 C-15.9020092 56.21898088 -18.15532815 55.51241013 -21.140625 53.2734375 C-25.05446083 48.72492559 -25.84490206 45.089322 -26.140625 39.2734375 C-25.140625 38.2734375 -25.140625 38.2734375 -23.07421875 38.17578125 C-21.83865234 38.19318359 -21.83865234 38.19318359 -20.578125 38.2109375 C-19.75183594 38.21996094 -18.92554688 38.22898437 -18.07421875 38.23828125 C-17.43613281 38.24988281 -16.79804688 38.26148438 -16.140625 38.2734375 C-15.480625 40.9134375 -14.820625 43.5534375 -14.140625 46.2734375 C-12.68269616 46.32743486 -11.22419788 46.36622927 -9.765625 46.3984375 C-8.95351563 46.42164063 -8.14140625 46.44484375 -7.3046875 46.46875 C-4.92720257 46.48713801 -4.92720257 46.48713801 -3.140625 44.2734375 C-2.55861769 40.53196196 -2.71040003 38.86685125 -4.953125 35.7734375 C-7.55192669 33.44194112 -10.48608456 31.9907962 -13.578125 30.3984375 C-18.45544807 27.79500154 -22.71687403 25.4251349 -25.140625 20.2734375 C-26.12803101 15.00986372 -25.93002694 10.08453921 -23.453125 5.2734375 C-17.8512237 -1.99389391 -8.515501 -2.89029778 0 0 Z " fill="#2E5371" transform="translate(514.140625,414.7265625)"/>
<path d="M0 0 C3.65299176 2.10749524 6.52561625 3.97571783 8.25 7.875 C8.64830673 11.58231647 8.54722348 15.16300904 8.25 18.875 C5.61 18.875 2.97 18.875 0.25 18.875 C-1.07 15.905 -2.39 12.935 -3.75 9.875 C-7.05 9.875 -10.35 9.875 -13.75 9.875 C-15.4114443 14.85933289 -14.97509154 20.05186561 -14.99023438 25.27172852 C-14.9999498 27.30201034 -15.03099209 29.3312833 -15.0625 31.36132812 C-15.06765625 32.64330078 -15.0728125 33.92527344 -15.078125 35.24609375 C-15.0874707 36.42099365 -15.09681641 37.59589355 -15.10644531 38.80639648 C-14.717702 42.15305042 -14.15836094 43.55023331 -11.75 45.875 C-7.66834173 46.38520728 -6.22042703 46.18861802 -2.75 43.875 C-1.5311879 40.31827821 -1.5311879 40.31827821 -0.75 36.875 C2.22 36.875 5.19 36.875 8.25 36.875 C8.57483018 44.12954065 8.16947521 47.59059039 3.25 53.125 C-1.16989554 56.9924086 -6.7839937 56.20033458 -12.3515625 56.16015625 C-17.79191069 55.70366726 -19.82333178 53.93928738 -23.5 50 C-26.27179069 45.28795582 -27.0045072 40.81697885 -27.015625 35.41015625 C-27.01820312 34.19779297 -27.02078125 32.98542969 -27.0234375 31.73632812 C-27.01570313 30.48271484 -27.00796875 29.22910156 -27 27.9375 C-27.00773437 26.68775391 -27.01546875 25.43800781 -27.0234375 24.15039062 C-26.99272914 9.69443092 -26.99272914 9.69443092 -22.5625 4.125 C-15.45933242 -1.55753407 -8.52737263 -2.55821179 0 0 Z " fill="#2E5371" transform="translate(64.75,415.125)"/>
<path d="M0 0 C9.57 0 19.14 0 29 0 C29 3.3 29 6.6 29 10 C23.06 10 17.12 10 11 10 C11 13.96 11 17.92 11 22 C15.95 22 20.9 22 26 22 C26 25.3 26 28.6 26 32 C21.05 32 16.1 32 11 32 C11 36.62 11 41.24 11 46 C16.94 46 22.88 46 29 46 C29 48.97 29 51.94 29 55 C19.43 55 9.86 55 0 55 C0 36.85 0 18.7 0 0 Z " fill="#2E5270" transform="translate(170,415)"/>
<path d="M0 0 C9.57 0 19.14 0 29 0 C29 2.97 29 5.94 29 9 C28 10 28 10 26.23413086 10.11352539 C25.48526611 10.10828857 24.73640137 10.10305176 23.96484375 10.09765625 C23.15595703 10.09443359 22.34707031 10.09121094 21.51367188 10.08789062 C20.66353516 10.07951172 19.81339844 10.07113281 18.9375 10.0625 C18.08349609 10.05798828 17.22949219 10.05347656 16.34960938 10.04882812 C14.23304337 10.03700373 12.11651315 10.01906769 10 10 C10 13.96 10 17.92 10 22 C14.95 22 19.9 22 25 22 C25 25.3 25 28.6 25 32 C20.05 32 15.1 32 10 32 C10 36.62 10 41.24 10 46 C16.27 46 22.54 46 29 46 C29 48.97 29 51.94 29 55 C19.43 55 9.86 55 0 55 C0 36.85 0 18.7 0 0 Z " fill="#2F5372" transform="translate(297,415)"/>
<path d="M0 0 C0.33923576 2.35344806 0.67150534 4.7075484 1 7.0625 C1.09539062 7.71927734 1.19078125 8.37605469 1.2890625 9.05273438 C1.88887674 13.40138763 2.09127093 17.61329071 2 22 C-1.81684226 20.44499019 -4.19195732 17.96404505 -7 15 C-5.19707529 20.60909911 -3.02925694 24.67058788 0.6953125 29.23828125 C3.19164225 32.60907382 3.11005797 35.6450727 3.0625 39.6875 C3.05347656 40.68136719 3.04445312 41.67523438 3.03515625 42.69921875 C3.02355469 43.45847656 3.01195312 44.21773438 3 45 C-1.94314286 44.21041312 -3.70129102 42.86190319 -7 39 C-10.00164353 34.83187619 -12.78044699 30.63897099 -15 26 C-14.60543652 32.00008597 -13.50753179 36.54884393 -11 42 C-11 42.99 -11 43.98 -11 45 C-15.76641754 44.57943375 -18.81360619 42.4227472 -22 39 C-26.2214185 33.02856308 -27.92595683 27.30477055 -27 20 C-25.21647653 14.18416259 -22.66408999 9.98154023 -18 6 C-17.175 5.278125 -16.35 4.55625 -15.5 3.8125 C-10.26531175 0.01735102 -6.29119627 -0.21326089 0 0 Z " fill="#305574" transform="translate(183,318)"/>
<path d="M0 0 C6.86523747 0.54486012 13.3810944 4.0758423 17.9375 9.3125 C22.50391687 15.96332352 24.23251951 22.30256452 22.9375 30.3125 C21.24214688 35.61498742 18.37662722 39.90572795 13.9375 43.3125 C10.125 44.125 10.125 44.125 6.9375 44.3125 C7.87499567 41.43304901 8.79245496 38.62676426 10.0625 35.875 C11.17481614 32.61750273 10.99352256 29.73387779 10.9375 26.3125 C10.51339844 27.18132812 10.08929688 28.05015625 9.65234375 28.9453125 C6.25055736 35.62926202 3.34037116 41.08418886 -3.0625 45.3125 C-4.3825 45.3125 -5.7025 45.3125 -7.0625 45.3125 C-8.07121897 35.48682999 -5.38911468 29.83301542 0.59375 22.19921875 C2.20392069 19.93842676 2.5591873 18.03635143 2.9375 15.3125 C1.7928125 16.488125 1.7928125 16.488125 0.625 17.6875 C-2.0625 20.3125 -2.0625 20.3125 -5.0625 22.3125 C-4.92431468 18.83298477 -4.77567399 15.35399505 -4.625 11.875 C-4.56602539 10.38516602 -4.56602539 10.38516602 -4.50585938 8.86523438 C-4.46396484 7.92099609 -4.42207031 6.97675781 -4.37890625 6.00390625 C-4.34224854 5.12935791 -4.30559082 4.25480957 -4.26782227 3.35375977 C-3.9353022 0.04793306 -3.40806197 0.34776143 0 0 Z " fill="#305574" transform="translate(376.0625,317.6875)"/>
<path d="M0 0 C3.3 0 6.6 0 10 0 C10 15.18 10 30.36 10 46 C15.28 46 20.56 46 26 46 C26 48.97 26 51.94 26 55 C17.42 55 8.84 55 0 55 C0 36.85 0 18.7 0 0 Z " fill="#2F5473" transform="translate(390,415)"/>
<path d="M0 0 C0 2 0 2 -1.5 3.625 C-1.995 4.07875 -2.49 4.5325 -3 5 C-2.2884375 5.27070313 -1.576875 5.54140625 -0.84375 5.8203125 C2.04374396 7.01814653 4.73890021 8.41101027 7.5 9.875 C23.54148809 17.78905942 41.91117862 20.37894334 59.3671875 14.984375 C66.90519192 12.16601133 74.12795133 9.21693895 81 5 C81.22609337 2.87635519 81.22609337 2.87635519 79.5 1.375 C79.005 0.92125 78.51 0.4675 78 0 C80.1875 -0.3125 80.1875 -0.3125 83 0 C85.8125 2.1875 85.8125 2.1875 88 5 C88.3125 7.8125 88.3125 7.8125 88 10 C86.82824219 10.25007812 85.65648437 10.50015625 84.44921875 10.7578125 C80.12094297 11.84059505 76.64432931 13.64414753 72.8125 15.875 C57.24761096 24.36982718 40.18029713 27.14488942 22.578125 23.15234375 C15.32932562 20.89665196 8.64468442 17.48473317 2.09521484 13.6796875 C-1.6109575 11.55186004 -4.74610361 10.44028151 -9 10 C-8.51309271 3.54847841 -8.51309271 3.54847841 -6.1875 1.0625 C-4 0 -4 0 0 0 Z " fill="#111723" transform="translate(238,218)"/>
<path d="M0 0 C3.22384925 2.55633536 4.80925204 4.07116539 5.64697266 8.15039062 C5.6526123 9.30732422 5.65825195 10.46425781 5.6640625 11.65625 C5.67050781 12.92597656 5.67695312 14.19570313 5.68359375 15.50390625 C5.66425781 16.82261719 5.64492187 18.14132812 5.625 19.5 C5.65400391 21.47806641 5.65400391 21.47806641 5.68359375 23.49609375 C5.67714844 24.76582031 5.67070313 26.03554688 5.6640625 27.34375 C5.65842285 28.50068359 5.6527832 29.65761719 5.64697266 30.84960938 C4.80983595 34.92599131 3.21233153 36.43581718 0 39 C-3.47163403 39.56679739 -5.2203804 39.421416 -8.3125 37.75 C-12.74042487 33.15807791 -11.22422905 24.98015443 -11.25 19.0625 C-11.270625 17.88236328 -11.29125 16.70222656 -11.3125 15.48632812 C-11.31765625 14.34744141 -11.3228125 13.20855469 -11.328125 12.03515625 C-11.3374707 10.9975415 -11.34681641 9.95992676 -11.35644531 8.89086914 C-10.9456639 5.55931936 -9.97518519 3.69018299 -8 1 C-5.11138291 -0.44430855 -3.20352299 -0.37688506 0 0 Z " fill="#111825" transform="translate(103,423)"/>
<path d="M0 0 C3.15827283 3.60945466 3.52066812 7.04049808 3.3515625 11.66015625 C2.28340652 18.76932773 -1.94127612 23.96590494 -7.59375 28.19140625 C-12.16654853 31.17411802 -15.59786351 31.3790973 -21 31 C-20.835 30.360625 -20.67 29.72125 -20.5 29.0625 C-19.42457252 22.47550666 -19.16242087 17.67294306 -23 12 C-21.42240528 7.26721584 -17.41071386 6.06606151 -13.1875 3.75 C-11.95676758 3.04230469 -11.95676758 3.04230469 -10.70117188 2.3203125 C-9.90646484 1.87945312 -9.11175781 1.43859375 -8.29296875 0.984375 C-7.5661792 0.57928711 -6.83938965 0.17419922 -6.09057617 -0.24316406 C-3.5797597 -1.15213651 -2.4514647 -0.99736026 0 0 Z " fill="#2F5372" transform="translate(343,168)"/>
<path d="M0 0 C3.3 0 6.6 0 10 0 C10 18.15 10 36.3 10 55 C6.7 55 3.4 55 0 55 C0 36.85 0 18.7 0 0 Z " fill="#2F5473" transform="translate(425,415)"/>
<path d="M0 0 C5.55563136 0.51619252 9.55547149 2.60718351 14.3125 5.3125 C15.40401367 5.8993457 15.40401367 5.8993457 16.51757812 6.49804688 C17.20916016 6.88669922 17.90074219 7.27535156 18.61328125 7.67578125 C19.24016846 8.02552002 19.86705566 8.37525879 20.51293945 8.7355957 C22.43293006 10.36810783 22.74954774 11.51908184 23 14 C22.01392419 15.34366375 21.01278901 16.67635496 20 18 C19.60237889 20.45123817 19.60237889 20.45123817 19.75 23 C19.76546875 23.845625 19.7809375 24.69125 19.796875 25.5625 C19.98487981 27.81855769 20.37669908 29.82850004 21 32 C14.1689454 32.60991559 10.30088373 31.3699434 5 27 C0.05806278 22.20019814 -2.74869458 18.11618724 -3.3125 11.125 C-3.22327141 6.85825098 -1.89509627 3.79019255 0 0 Z " fill="#2F5372" transform="translate(212,167)"/>
<path d="M0 0 C9.19230769 0 9.19230769 0 13 3 C15.22634301 7.45268601 14.27477227 13.48548636 14.3125 18.375 C14.34150391 19.62023437 14.37050781 20.86546875 14.40039062 22.1484375 C14.40876953 23.3446875 14.41714844 24.5409375 14.42578125 25.7734375 C14.44036377 26.87091309 14.45494629 27.96838867 14.4699707 29.09912109 C13.88983068 32.68001656 12.83329069 33.80596832 10 36 C7 37 7 37 0 37 C0 24.79 0 12.58 0 0 Z " fill="#101724" transform="translate(137,424)"/>
<path d="M0 0 C2.475 0.495 2.475 0.495 5 1 C4.43136548 7.596825 3.19495287 13.61194608 1.34765625 19.9609375 C1.08746201 20.87332184 0.82726776 21.78570618 0.55918884 22.72573853 C0.01212114 24.6376641 -0.53850052 26.54857605 -1.0925293 28.45849609 C-1.94040763 31.38503598 -2.77468018 34.31521516 -3.60742188 37.24609375 C-4.14243021 39.10960456 -4.67821017 40.97289406 -5.21484375 42.8359375 C-5.46386948 43.71091888 -5.7128952 44.58590027 -5.96946716 45.48739624 C-6.20633743 46.298992 -6.4432077 47.11058777 -6.68725586 47.94677734 C-6.99583778 49.01525406 -6.99583778 49.01525406 -7.31065369 50.10531616 C-8 52 -8 52 -10 55 C-11.98 54.67 -13.96 54.34 -16 54 C-15.31940278 48.17738702 -13.95128359 42.69353709 -12.3828125 37.05078125 C-12.12498993 36.11574265 -11.86716736 35.18070404 -11.60153198 34.21733093 C-11.05747512 32.25093346 -10.51105546 30.28518836 -9.96240234 28.32006836 C-9.12548695 25.31424892 -8.30270187 22.30478599 -7.48046875 19.29492188 C-6.94877608 17.37996951 -6.41625245 15.46524762 -5.8828125 13.55078125 C-5.63894806 12.65281326 -5.39508362 11.75484528 -5.14382935 10.82966614 C-2.97834958 3.1662181 -2.97834958 3.1662181 0 0 Z " fill="#2F5473" transform="translate(284,298)"/>
<path d="M0 0 C1.87036133 0.8425293 1.87036133 0.8425293 3.87036133 2.8425293 C3.64972926 6.83087828 1.25173352 8.80036009 -1.50463867 11.4675293 C-2.29612305 12.24354492 -3.08760742 13.01956055 -3.90307617 13.8190918 C-6.12963867 15.8425293 -6.12963867 15.8425293 -9.12963867 17.8425293 C-7.13297503 22.82841771 -3.02394537 25.84999056 0.85083008 29.4050293 C2.87036133 31.8425293 2.87036133 31.8425293 2.79614258 34.0300293 C1.87036133 35.8425293 1.87036133 35.8425293 -0.12963867 37.8425293 C-5.51004412 37.38758139 -8.85331666 32.63145473 -12.44213867 29.0300293 C-13.1955957 28.30493164 -13.94905273 27.57983398 -14.7253418 26.83276367 C-15.78591797 25.77605469 -15.78591797 25.77605469 -16.86791992 24.69799805 C-17.51801025 24.05499756 -18.16810059 23.41199707 -18.83789062 22.74951172 C-20.12963867 20.8425293 -20.12963867 20.8425293 -20.06323242 18.8605957 C-18.05007736 14.50893781 -14.17096261 11.37282999 -10.81713867 8.0300293 C-10.0443457 7.22887695 -9.27155273 6.42772461 -8.4753418 5.60229492 C-7.72575195 4.85012695 -6.97616211 4.09795898 -6.20385742 3.32299805 C-5.5189624 2.63101318 -4.83406738 1.93902832 -4.12841797 1.22607422 C-2.12963867 -0.1574707 -2.12963867 -0.1574707 0 0 Z " fill="#2F5473" transform="translate(260.129638671875,306.157470703125)"/>
<path d="M0 0 C3.25207092 1.41738489 5.31361067 3.12526412 7.75 5.6875 C11.12604224 9.17755492 14.65496872 12.31281235 18.43359375 15.359375 C20.29848022 17.31262267 20.95892606 18.28398571 21 21 C19.41015625 23.11328125 19.41015625 23.11328125 17.0625 25.3125 C15.82306641 26.48232422 15.82306641 26.48232422 14.55859375 27.67578125 C13.71425781 28.44277344 12.86992187 29.20976562 12 30 C11.24847656 30.69480469 10.49695313 31.38960938 9.72265625 32.10546875 C4.48080065 36.83973312 4.48080065 36.83973312 1 38 C-0.32 36.68 -1.64 35.36 -3 34 C0.69285518 29.58658771 4.45700641 25.49004601 8.6796875 21.578125 C10.32083853 19.95944529 10.32083853 19.95944529 10 17 C9.43925781 16.76023437 8.87851562 16.52046875 8.30078125 16.2734375 C5.50179996 14.72425601 3.4796952 12.85424315 1.1875 10.625 C-0.02873047 9.46871094 -0.02873047 9.46871094 -1.26953125 8.2890625 C-3 6 -3 6 -2.88671875 3.8359375 C-2 2 -2 2 0 0 Z " fill="#2F5473" transform="translate(296,306)"/>
<path d="M0 0 C10.45247108 -0.36891074 10.45247108 -0.36891074 12.83203125 1.234375 C14.29527061 3.44636225 14.40170542 4.79811429 14.375 7.4375 C14.38273437 8.19933594 14.39046875 8.96117187 14.3984375 9.74609375 C13.88610068 12.64431279 13.14318126 13.97563049 11 16 C7.27101421 16.53965062 3.78628294 16.17817802 0 16 C0 10.72 0 5.44 0 0 Z " fill="#101723" transform="translate(263,424)"/>
<path d="M0 0 C12.94044389 -1.05159363 24.53915075 3.57473147 35 11 C37.85226734 13.51722511 40.48256653 16.14937681 43 19 C42.01 19.495 42.01 19.495 41 20 C38.82362681 18.87994183 36.77265061 17.70967679 34.6875 16.4375 C23.61573909 9.91286564 12.14578989 5.11536509 0 1 C0 0.67 0 0.34 0 0 Z " fill="#111823" transform="translate(212,134)"/>
<path d="M0 0 C-1.56643575 3.13287149 -4.72137805 3.4319883 -7.875 4.5 C-16.3304066 7.49419841 -24.05673545 11.54169463 -31.91796875 15.828125 C-34.88159514 17.43839572 -37.8199813 18.85289907 -41 20 C-38.11785762 12.47914327 -28.19269435 7.32508084 -21.25 4.0625 C-14.09794913 1.0867543 -7.76234321 -0.27722654 0 0 Z " fill="#111723" transform="translate(341,134)"/>
<path d="M0 0 C3.16115776 1.36983503 3.9927092 1.9890638 6 5 C6 6.32 6 7.64 6 9 C5.278125 9.061875 4.55625 9.12375 3.8125 9.1875 C0.16149678 10.24223426 -1.42090955 12.28149926 -4 15 C-4.66 15 -5.32 15 -6 15 C-4.99667352 9.05925113 -3.69087294 4.79813482 0 0 Z " fill="#101723" transform="translate(286,202)"/>
<path d="M0 0 C4.63154352 3.51358474 5.97002802 8.47472975 7 14 C6.67 14.66 6.34 15.32 6 16 C5.443125 15.21625 4.88625 14.4325 4.3125 13.625 C1.90405335 10.89108759 0.44606366 9.99754474 -3 9 C-3.66 9 -4.32 9 -5 9 C-4.5206753 4.68607774 -3.2542015 2.83430453 0 0 Z " fill="#101722" transform="translate(268,202)"/>
<path d="M0 0 C0.75990234 -0.00386719 1.51980469 -0.00773437 2.30273438 -0.01171875 C6.23054438 -0.00489371 9.85246512 0.16050021 13.6875 1.125 C13.6875 1.455 13.6875 1.785 13.6875 2.125 C8.7375 2.125 3.7875 2.125 -1.3125 2.125 C-1.3125 2.785 -1.3125 3.445 -1.3125 4.125 C-1.9725 4.125 -2.6325 4.125 -3.3125 4.125 C-3.3125 3.465 -3.3125 2.805 -3.3125 2.125 C-4.6325 2.455 -5.9525 2.785 -7.3125 3.125 C-6.9825 3.785 -6.6525 4.445 -6.3125 5.125 C-7.6325 4.465 -8.9525 3.805 -10.3125 3.125 C-10.3125 2.465 -10.3125 1.805 -10.3125 1.125 C-7.0770883 -0.49270585 -3.55042649 -0.01779662 0 0 Z " fill="#365E7E" transform="translate(67.3125,48.875)"/>
<path d="M0 0 C4.38855677 1.72407587 6.91486937 4.82973873 9 9 C9.04022391 11.3329866 9.04320247 13.66706666 9 16 C8.34 16 7.68 16 7 16 C6.74605469 15.34773437 6.49210937 14.69546875 6.23046875 14.0234375 C4.34261472 9.22956098 2.39996262 4.55992898 0 0 Z " fill="#121926" transform="translate(264,148)"/>
<path d="M0 0 C0 3.39053207 -0.5729841 4.16009583 -2.4375 6.875 C-4.42291293 9.91481302 -5.65454225 12.31511732 -6 16 C-6.66 16 -7.32 16 -8 16 C-8.45760607 10.2799241 -7.63848132 7.44703273 -4 3 C-1.75 1.125 -1.75 1.125 0 0 Z " fill="#111925" transform="translate(290,148)"/>
<path d="M0 0 C0.33 0 0.66 0 1 0 C1.1953125 2.05078125 1.390625 4.1015625 1.5859375 6.15234375 C1.72257813 6.76207031 1.85921875 7.37179687 2 8 C2.66 8.33 3.32 8.66 4 9 C4 7.35 4 5.7 4 4 C4.66 4.33 5.32 4.66 6 5 C6 8.63 6 12.26 6 16 C5.67 16 5.34 16 5 16 C4.87625 15.195625 4.7525 14.39125 4.625 13.5625 C4.41875 12.716875 4.2125 11.87125 4 11 C3.34 10.67 2.68 10.34 2 10 C2 12.64 2 15.28 2 18 C1.67 18 1.34 18 1 18 C-0.32594359 12.03325384 -0.0884587 6.07416385 0 0 Z " fill="#305676" transform="translate(190,304)"/>
<path d="M0 0 C0 0.33 0 0.66 0 1 C-0.69867188 1.13277344 -1.39734375 1.26554687 -2.1171875 1.40234375 C-3.02726562 1.57894531 -3.93734375 1.75554688 -4.875 1.9375 C-5.77992188 2.11152344 -6.68484375 2.28554688 -7.6171875 2.46484375 C-9.99956317 2.89963701 -9.99956317 2.89963701 -12 4 C-14.37123246 4.23029956 -16.74741943 4.41119942 -19.125 4.5625 C-20.40632813 4.64628906 -21.68765625 4.73007812 -23.0078125 4.81640625 C-23.99523437 4.87699219 -24.98265625 4.93757813 -26 5 C-25.67 4.34 -25.34 3.68 -25 3 C-16.7897333 0.69053143 -8.52661207 -0.54169065 0 0 Z " fill="#3B6586" transform="translate(474,51)"/>
<path d="M0 0 C0.66 1.32 1.32 2.64 2 4 C2.99 3.67 3.98 3.34 5 3 C6.17571451 6.67410785 6.07366746 10.16929183 6 14 C5.67 14 5.34 14 5 14 C4.67 12.35 4.34 10.7 4 9 C3.01 9.33 2.02 9.66 1 10 C-0.1577506 6.52674819 -0.06866652 3.63932552 0 0 Z " fill="#2A4A66" transform="translate(360,298)"/>
<path d="M0 0 C0.33 0 0.66 0 1 0 C1 2.31 1 4.62 1 7 C5.29 7.33 9.58 7.66 14 8 C14 8.33 14 8.66 14 9 C11.68756208 9.02685412 9.3750373 9.04632841 7.0625 9.0625 C5.77472656 9.07410156 4.48695313 9.08570313 3.16015625 9.09765625 C0 9 0 9 -1 8 C-1.23529412 2.47058824 -1.23529412 2.47058824 0 0 Z " fill="#2A4A65" transform="translate(377,173)"/>
<path d="M0 0 C-0.60328125 0.26554687 -1.2065625 0.53109375 -1.828125 0.8046875 C-2.62734375 1.15789063 -3.4265625 1.51109375 -4.25 1.875 C-5.03890625 2.22304688 -5.8278125 2.57109375 -6.640625 2.9296875 C-11.17115232 4.93552334 -11.17115232 4.93552334 -15 8 C-15.66 7.01 -16.32 6.02 -17 5 C-4.54150198 -1.51383399 -4.54150198 -1.51383399 0 0 Z " fill="#386284" transform="translate(433,61)"/>
<path d="M0 0 C3 2 3 2 6 4 C6 4.99 6 5.98 6 7 C3.53199953 5.84826645 1.95216435 4.95216435 0 3 C0 2.01 0 1.02 0 0 Z M-3 2 C-1.82780457 2.78345715 -0.66236332 3.57702836 0.5 4.375 C1.47453125 5.03628906 1.47453125 5.03628906 2.46875 5.7109375 C2.9740625 6.13632813 3.479375 6.56171875 4 7 C4 7.66 4 8.32 4 9 C1.13302508 7.71480435 -0.97607712 6.42870746 -3 4 C-3 3.34 -3 2.68 -3 2 Z " fill="#223B51" transform="translate(301,202)"/>
<path d="M0 0 C5.28 0 10.56 0 16 0 C16 0.66 16 1.32 16 2 C12.37 2.66 8.74 3.32 5 4 C5.66 3.67 6.32 3.34 7 3 C7 2.34 7 1.68 7 1 C4.69 1 2.38 1 0 1 C0 0.67 0 0.34 0 0 Z " fill="#141D2B" transform="translate(400,134)"/>
<path d="M0 0 C4.24063347 0.48818289 5.94766011 1.51778264 8.625 4.8125 C9.19476563 5.49957031 9.76453125 6.18664063 10.3515625 6.89453125 C11.9293371 8.90974573 13.47550747 10.94424492 15 13 C14.67 13.66 14.34 14.32 14 15 C13.24074219 14.16855469 12.48148438 13.33710937 11.69921875 12.48046875 C10.69534886 11.38277925 9.6914406 10.28512484 8.6875 9.1875 C8.18798828 8.64029297 7.68847656 8.09308594 7.17382812 7.52929688 C4.83056872 4.96878163 2.48855146 2.42060466 0 0 Z " fill="#355C7D" transform="translate(64,56)"/>
<path d="M0 0 C0.66 0.66 1.32 1.32 2 2 C2.99 2 3.98 2 5 2 C5 4.97 5 7.94 5 11 C3 10 3 10 2 7 C1.34 6.67 0.68 6.34 0 6 C0 4.02 0 2.04 0 0 Z " fill="#2F5474" transform="translate(360,305)"/>
<path d="M0 0 C1.41377341 2.63904371 2.37240135 5.07120629 3 8 C0.03824877 7.38722388 -1.38058783 6.74627478 -4 5 C-2.25 1.125 -2.25 1.125 0 0 Z " fill="#2F5574" transform="translate(304,188)"/>
<path d="M0 0 C2.5 1.375 2.5 1.375 5 3 C5 3.66 5 4.32 5 5 C2.625 6.6875 2.625 6.6875 0 8 C-0.66 7.67 -1.32 7.34 -2 7 C-1.34 4.69 -0.68 2.38 0 0 Z " fill="#305575" transform="translate(250,188)"/>
<path d="M0 0 C-2.67477931 2.67477931 -5.492975 3.6464114 -9 5 C-9.99 5 -10.98 5 -12 5 C-12 4.34 -12 3.68 -12 3 C-7.77050005 0.58314288 -4.87664009 -0.34833144 0 0 Z " fill="#376080" transform="translate(443,66)"/>
<path d="M0 0 C0.99 0.66 1.98 1.32 3 2 C3.1875 5.625 3.1875 5.625 3 9 C1.0625 8.3125 1.0625 8.3125 -1 7 C-1.75 4.375 -1.75 4.375 -2 2 C-1.34 2 -0.68 2 0 2 C0 1.34 0 0.68 0 0 Z " fill="#2C4D6A" transform="translate(182,331)"/>
<path d="M0 0 C-1.28813342 0.83878455 -2.58063256 1.67086783 -3.875 2.5 C-4.59429687 2.9640625 -5.31359375 3.428125 -6.0546875 3.90625 C-8 5 -8 5 -10 5 C-10 4.01 -10 3.02 -10 2 C-8.71211992 1.46987262 -7.41953322 0.9511671 -6.125 0.4375 C-5.40570313 0.14746094 -4.68640625 -0.14257812 -3.9453125 -0.44140625 C-2 -1 -2 -1 0 0 Z " fill="#355E7E" transform="translate(429,73)"/>
</svg>
